# Blender v2.83.5 OBJ File: 'skybox.blend'
# www.blender.org
mtllib skybox.mtl
o Cube
v 1.000000 1.000000 -1.000000
v 1.000000 -1.000000 -1.000000
v 1.000000 1.000000 1.000000
v 1.000000 -1.000000 1.000000
v -1.000000 1.000000 -1.000000
v -1.000000 -1.000000 -1.000000
v -1.000000 1.000000 1.000000
v -1.000000 -1.000000 1.000000
vt 0.499434 0.671351
vt 0.501094 1.006567
vt 0.251819 1.007906
vt 0.250159 0.672690
vt 0.248499 0.337474
vt 0.000884 0.674029
vt 0.000620 0.338813
vt 0.994929 0.333457
vt 0.996589 0.668673
vt 0.757083 0.670012
vt 0.755423 0.329182
vt 0.496115 0.000919
vt 0.497774 0.330521
vt 0.246840 0.002258
vn 0.0000 1.0000 0.0000
vn 0.0000 0.0000 1.0000
vn -1.0000 0.0000 0.0000
vn 0.0000 -1.0000 0.0000
vn 1.0000 0.0000 0.0000
vn 0.0000 0.0000 -1.0000
usemtl Material
s off
f 1/1/1 5/2/1 7/3/1 3/4/1
f 4/5/2 3/4/2 7/6/2 8/7/2
f 8/8/3 7/9/3 5/10/3 6/11/3
f 6/12/4 2/13/4 4/5/4 8/14/4
f 2/13/5 1/1/5 3/4/5 4/5/5
f 6/11/6 5/10/6 1/1/6 2/13/6
