# Blender v3.2.0 OBJ File: ''
# www.blender.org
mtllib wallBox.mtl
o Cube_Cube.001
v -1.000000 -1.000000 1.000000
v -1.000000 1.000000 1.000000
v -1.000000 -1.000000 -1.000000
v -1.000000 1.000000 -1.000000
v 1.000000 -1.000000 1.000000
v 1.000000 1.000000 1.000000
v 1.000000 -1.000000 -1.000000
v 1.000000 1.000000 -1.000000
vt 0.662614 0.397613
vt 0.663978 0.552604
vt 0.562954 0.553411
vt 0.561590 0.398420
vt 0.461760 0.553921
vt 0.460731 0.398928
vt 0.360734 0.554530
vt 0.359705 0.399536
vt 0.259708 0.555138
vt 0.258680 0.400145
vt 0.459703 0.243934
vt 0.358677 0.244543
vt 0.462788 0.708915
vt 0.361762 0.709523
vn -1.0000 0.0000 0.0000
vn 0.0000 0.0000 -1.0000
vn 1.0000 0.0000 0.0000
vn 0.0000 0.0000 1.0000
vn 0.0000 -1.0000 0.0000
vn 0.0000 1.0000 0.0000
usemtl Material.001
s off
f 1/1/1 2/2/1 4/3/1 3/4/1
f 3/4/2 4/3/2 8/5/2 7/6/2
f 7/6/3 8/5/3 6/7/3 5/8/3
f 5/8/4 6/7/4 2/9/4 1/10/4
f 3/11/5 7/6/5 5/8/5 1/12/5
f 8/5/6 4/13/6 2/14/6 6/7/6
